<svg width="21" height="20" viewBox="0 0 21 20" fill="none" xmlns="http://www.w3.org/2000/svg">
<mask id="path-1-inside-1_0_1" fill="white">
<path fill-rule="evenodd" clip-rule="evenodd" d="M7.32228 5.00102C8.12144 3.19368 9.64127 1.43698e-07 10.4023 1.43698e-07C11.5075 -0.0010896 13.9285 6.19628 13.9285 6.19628C13.9285 6.19628 16.1696 6.39135 17.9809 6.59077C18.9425 6.69647 20.6595 6.85776 20.7669 7.38628C20.79 7.50071 20.6518 7.96821 20.4007 8.29404C19.3372 9.67801 16.5774 12.6432 16.5774 12.6432C16.5774 12.6432 16.7288 14.0599 16.8636 15.6095C16.9502 16.6121 17.1838 18.6433 17.0994 19.0062C17.0073 19.4062 16.8417 19.5151 16.6695 19.5783C16.22 19.7418 15.1762 19.1065 13.957 18.5246C12.2959 17.7301 10.4297 16.8812 10.4297 16.8812C10.4297 16.8812 9.19841 17.5231 7.73905 18.1497C6.17992 18.8188 4.60104 19.9216 3.94208 19.5337C3.53092 19.2906 3.83573 17.3967 3.99362 15.7108C4.14164 14.1209 4.26992 12.6683 4.26992 12.6683C4.26992 12.6683 3.35549 11.5981 2.29085 10.4539C1.14068 9.21705 -0.261664 7.88212 0.0420495 7.39173C0.271205 7.02122 1.31721 6.82288 3.0737 6.60603C4.93984 6.375 6.80379 6.21154 6.80379 6.21154C6.80379 6.21154 7.00692 5.71422 7.32228 5.00102Z"/>
</mask>
<path fill-rule="evenodd" clip-rule="evenodd" d="M7.32228 5.00102C8.12144 3.19368 9.64127 1.43698e-07 10.4023 1.43698e-07C11.5075 -0.0010896 13.9285 6.19628 13.9285 6.19628C13.9285 6.19628 16.1696 6.39135 17.9809 6.59077C18.9425 6.69647 20.6595 6.85776 20.7669 7.38628C20.79 7.50071 20.6518 7.96821 20.4007 8.29404C19.3372 9.67801 16.5774 12.6432 16.5774 12.6432C16.5774 12.6432 16.7288 14.0599 16.8636 15.6095C16.9502 16.6121 17.1838 18.6433 17.0994 19.0062C17.0073 19.4062 16.8417 19.5151 16.6695 19.5783C16.22 19.7418 15.1762 19.1065 13.957 18.5246C12.2959 17.7301 10.4297 16.8812 10.4297 16.8812C10.4297 16.8812 9.19841 17.5231 7.73905 18.1497C6.17992 18.8188 4.60104 19.9216 3.94208 19.5337C3.53092 19.2906 3.83573 17.3967 3.99362 15.7108C4.14164 14.1209 4.26992 12.6683 4.26992 12.6683C4.26992 12.6683 3.35549 11.5981 2.29085 10.4539C1.14068 9.21705 -0.261664 7.88212 0.0420495 7.39173C0.271205 7.02122 1.31721 6.82288 3.0737 6.60603C4.93984 6.375 6.80379 6.21154 6.80379 6.21154C6.80379 6.21154 7.00692 5.71422 7.32228 5.00102Z" stroke="#616A81" stroke-width="4" mask="url(#path-1-inside-1_0_1)"/>
</svg>
